HIERARCHY
ROOT pelvis
{
  OFFSET 0 100 0
  CHANNELS 6 Xposition Yposition Zposition Zrotation Xrotation Yrotation
  JOINT pelvis_right_femur
  {
    OFFSET -10.78128 -3.44521 -0.5502486
    CHANNELS 3 Zrotation Xrotation Yrotation
    JOINT right_femur_tibia
    {
      OFFSET -0.8047443 -44.0398 -0.1307829
      CHANNELS 3 Zrotation Xrotation Yrotation
      JOINT right_tibia_foot
      {
        OFFSET 3.006224 -47.83518 -5
        CHANNELS 3 Zrotation Xrotation Yrotation
        End Site
        {
          OFFSET 0 -5 15
        }
      }
    }
  }
  JOINT pelvis_left_femur
  {
    OFFSET 10.78128 -3.44521 -0.5502486
    CHANNELS 3 Zrotation Xrotation Yrotation
    JOINT left_femur_tibia
    {
      OFFSET 0.8047443 -44.0398 -0.1307829
      CHANNELS 3 Zrotation Xrotation Yrotation
      JOINT left_tibia_foot
      {
        OFFSET -4.370144 -48.10324 -4.275266
        CHANNELS 3 Zrotation Xrotation Yrotation
        End Site
        {
          OFFSET 0 -5 15
        }
      }
    }
  }
  JOINT pelvis_spine1
  {
    OFFSET 0 6.468898 -3.129235
    CHANNELS 3 Zrotation Xrotation Yrotation
    JOINT spine1
    {
      OFFSET 0 23.15396 4.99043
      CHANNELS 3 Zrotation Xrotation Yrotation
      JOINT spine2
      {
        OFFSET 0 20.79997 -5.064912
        CHANNELS 3 Zrotation Xrotation Yrotation
        JOINT neck
        {
          OFFSET 0 14.38658 9.616178
          CHANNELS 3 Zrotation Xrotation Yrotation
          End Site
          {
            OFFSET 0 20 0
          }
        }
      }
      JOINT right_manubrium
      {
        OFFSET -5.722621 16.35077 3.967754
        CHANNELS 3 Zrotation Xrotation Yrotation
        JOINT right_clavicle
        {
          OFFSET -13.16364 1.694482 -4.693211
          CHANNELS 3 Zrotation Xrotation Yrotation
          JOINT right_humerus
          {
            OFFSET -28.5034 -0.3100689 -2.792744
            CHANNELS 3 Zrotation Xrotation Yrotation
            JOINT right_radius
            {
              OFFSET -25.15693 0.02248979 -1.271978
              CHANNELS 3 Zrotation Xrotation Yrotation
              End Site
              {
                OFFSET -15 0 0
              }
            }
          }
        }
      }
      JOINT left_manubrium
      {
        OFFSET 5.722621 16.35077 3.967754
        CHANNELS 3 Zrotation Xrotation Yrotation
        JOINT left_clavicle
        {
          OFFSET 13.16364 1.694482 -4.693211
          CHANNELS 3 Zrotation Xrotation Yrotation
          JOINT left_humerus
          {
            OFFSET 29.39168 -1.063119 -2.237045
            CHANNELS 3 Zrotation Xrotation Yrotation
            JOINT left_radius
            {
              OFFSET 24.59957 -0.9528479 0.9047498
              CHANNELS 3 Zrotation Xrotation Yrotation
              End Site
              {
                OFFSET 15 -0 -0
              }
            }
          }
        }
      }
    }
  }
}
MOTION
Frames: 13
Frame Time: 0.0416666666667
0 103.5113 0 1.15301 -0.7756268 0.05894949 2.976437 -17.15307 7.850455 -0 36.52924 -0 -5.558173 -16.18595 -3.258292 -7.098074 11.82843 -23.26067 -0 4.806947 -0 6.388751 -18.26839 25.36528 -1.821821 -2.921589 5.13239 3.162345 9.88077 -8.108519 1.317895 21.62613 6.206132 2.521541 -26.67944 9.190093 4.100473 -20.33011 11.65656 84.85956 30.21114 -17.52972 -0 0 17.2945 -10.83352 8.919258 3.488789 7.230091 -21.01261 1.4788 -94.83804 20.72546 22.22203 0 0 -5.949096 13.64671 17.50686 -5.784721
0.1944887 103.5089 1.583904 0.2843123 -0.04973524 -0.02087892 4.188304 -20.69104 8.415368 -0 36.51986 -0 -5.765177 -14.93709 -3.511293 -6.420638 11.74364 -23.07606 -0 5.168913 -0 4.888394 -19.71787 24.72149 -1.76408 -2.664263 5.004428 3.230793 9.821248 -8.094516 1.229695 21.48759 6.469082 2.692355 -26.73673 9.243997 4.263629 -19.93464 11.7132 85.01144 30.91609 -17.75299 -0 0 16.53224 -10.60051 9.017104 3.731756 7.157811 -21.1141 1.307781 -94.31134 20.68598 21.61616 0 0 -7.595771 13.55953 16.85087 -5.393508
0.3853473 103.045 4.000656 -0.1140049 0.2597938 -0.007943715 4.724902 -25.69542 5.544219 -0 28.56174 -0 -7.020467 -10.34354 -2.425955 -6.146305 12.83882 -20.25291 -0 5.88068 -0 6.196282 -20.89223 23.20247 -1.976451 -3.214974 5.284295 3.016131 9.92631 -8.01623 1.499688 21.64608 6.04457 2.536235 -26.50002 9.272857 4.626419 -20.26022 11.44269 84.71031 30.86524 -17.92081 -0 0 17.43705 -9.852412 8.853113 3.10197 7.242103 -20.89299 1.240951 -95.30764 21.78859 22.72961 0 0 -6.4105 13.27049 17.85439 -4.427256
0.5911165 102.4642 6.777954 -0.4575964 1.177567 0.06127295 5.50414 -29.10579 5.389871 -0 24.96117 -0 -6.972345 -8.492644 -2.20368 -5.98869 13.16457 -19.26461 -0 6.396464 -0 6.674713 -21.66381 22.59456 -2.044707 -3.315432 5.328485 2.958305 9.949023 -7.976891 1.575369 21.64174 5.993732 2.551879 -26.42929 9.319405 4.848638 -20.20352 11.35969 84.72372 31.21873 -18.1442 -0 0 17.40358 -9.389792 8.813616 2.958114 7.221627 -20.84244 1.08474 -95.43803 22.23024 22.89123 0 0 -6.842944 13.10398 17.9316 -3.790643
0.8036252 101.7755 10.01087 -0.6861753 1.999654 0.2515743 6.131773 -31.84206 5.04402 -0 21.14459 -0 -6.901295 -6.507406 -1.817886 -5.940545 13.6637 -18.20006 -0 7.382647 -0 7.17532 -22.05455 21.83715 -2.07448 -3.344816 5.354447 2.902735 9.972109 -7.929582 1.630549 21.59732 5.988427 2.601357 -26.3466 9.356623 5.087627 -20.0747 11.29042 84.80061 31.73131 -18.41964 -0 0 17.19817 -8.89662 8.807742 2.893904 7.176574 -20.82352 0.8664534 -95.43891 22.67324 22.953 0 0 -7.70326 12.87142 17.84981 -2.991687
1.020726 101.0462 13.73945 -0.9351069 2.718116 0.5938551 6.707461 -33.89557 4.750228 -0 17.83612 -0 -6.842519 -4.563534 -1.467401 -5.842188 14.23068 -17.17707 -0 8.897186 -0 6.992244 -22.21086 20.67911 -2.038509 -3.223089 5.307034 2.903085 9.970917 -7.905626 1.6126 21.49075 6.099648 2.703947 -26.30981 9.378585 5.267825 -19.83866 11.29149 84.95777 32.33474 -18.68662 -0 0 16.72441 -8.564471 8.878288 3.010314 7.112404 -20.87137 0.6416978 -95.14936 22.87624 22.70562 0 0 -9.003977 12.68639 17.46669 -2.358641
1.235622 100.3576 18.04273 -1.236004 3.27879 1.103068 7.220566 -35.15939 4.374598 -0 15.06704 -0 -6.905602 -2.595632 -1.124285 -5.646399 14.87292 -16.05521 -0 11.3 -0 6.062301 -21.89318 18.96657 -1.952028 -3.019618 5.230146 2.920427 9.963299 -7.892664 1.556199 21.34605 6.265134 2.837452 -26.27229 9.376431 5.417132 -19.54749 11.32251 85.16227 32.98465 -18.95902 -0 0 16.11157 -8.341559 9.009377 3.234427 7.045426 -20.96803 0.4046315 -94.70887 22.99099 22.30704 0 0 -10.56015 12.47478 16.91624 -1.734331
1.445251 99.8209 22.97466 -1.637639 3.685141 1.755414 7.739892 -35.48433 4.052181 -0 13.18821 -0 -7.106887 -0.8335679 -0.8751028 -5.283634 15.43534 -14.84786 -0 14.91427 -0 4.242687 -20.87017 16.65629 -1.822265 -2.749137 5.12771 2.953305 9.94902 -7.894895 1.46288 21.17739 6.474473 2.99266 -26.23397 9.346984 5.516488 -19.22217 11.38177 85.39557 33.60478 -19.20963 -0 0 15.40994 -8.282468 9.197525 3.555594 6.985814 -21.11067 0.1822126 -94.14932 22.99767 21.77231 0 0 -12.21364 12.2484 16.23541 -1.184559
1.651791 99.57366 28.53421 -2.162986 3.91321 2.465564 8.329518 -34.63214 3.934795 -0 12.56618 -0 -7.457598 0.369586 -0.7955373 -4.707976 15.62653 -13.60284 -0 20.14988 -0 1.61066 -18.82084 13.9076 -1.654583 -2.435948 5.020088 2.983129 9.936417 -7.904549 1.344285 21.0007 6.703084 3.159945 -26.17149 9.282153 5.568744 -18.88375 11.45514 85.63548 34.15248 -19.42462 -0 0 14.67852 -8.398248 9.435562 3.950697 6.938512 -21.29205 -0.01837138 -93.53561 22.94303 21.17093 0 0 -13.84192 11.96722 15.48111 -0.6552569
1.864932 99.76113 34.61477 -2.776247 3.911399 3.072746 8.981252 -32.34871 4.139446 -0 13.3779 -0 -7.958388 0.5280187 -0.9383567 -3.936398 14.96662 -12.43406 -0 27.32443 -0 -1.481852 -15.56001 11.15735 -1.454853 -2.094106 4.924459 2.99693 9.930689 -7.912834 1.205479 20.83333 6.934889 3.330276 -26.06919 9.174071 5.568279 -18.55111 11.53655 85.84828 34.57649 -19.56344 -0 0 13.9729 -8.724187 9.715462 4.41125 6.903903 -21.50262 -0.1785469 -92.92048 22.8366 20.5594 0 0 -15.30169 11.60892 14.69724 -0.1398771
2.09948 100.4854 40.97279 -3.30967 3.567114 3.363812 9.484846 -28.47871 4.558735 -0 15.19481 -0 -8.60651 -0.7711173 -1.257128 -3.134486 12.86249 -11.47068 -0 36.36022 -0 -4.351545 -11.36787 9.072123 -1.232378 -1.740576 4.866566 2.975768 9.939995 -7.90301 1.054115 20.69435 7.148444 3.492199 -25.9037 9.01331 5.515997 -18.25006 11.61795 85.98792 34.84163 -19.56999 -0 0 13.36231 -9.283097 10.02424 4.93266 6.874907 -21.72371 -0.2858241 -92.3675 22.7015 20.02421 0 0 -16.45324 11.14161 13.93292 0.3985465
2.364896 101.7315 47.27943 -3.442535 2.73069 3.181418 9.441358 -23.1678 4.811279 -0 16.74831 -0 -9.318041 -3.435556 -1.578221 -2.627433 8.90082 -10.75499 -0 46.34108 -0 -6.220926 -7.24521 8.216302 -1.004879 -1.394553 4.87558 2.900621 9.971524 -7.852864 0.8984537 20.60166 7.321 3.631006 -25.6528 8.793497 5.414378 -18.01725 11.69212 85.99748 34.93259 -19.3674 -0 0 12.92773 -10.08655 10.34183 5.521426 6.835966 -21.92465 -0.3336872 -91.93336 22.55442 19.66455 0 0 -17.17674 10.54816 13.23004 0.9920035
2.647508 103.3186 53.28549 -2.882163 1.330824 2.586239 8.589411 -16.96584 4.545913 -0 16.59727 -0 -9.773225 -6.484711 -1.713978 -2.642517 3.274792 -10.13311 -0 55.34675 -0 -6.725097 -4.492592 8.65873 -0.8007416 -1.08068 4.977844 2.755806 10.02944 -7.739798 0.7488984 20.56508 7.430162 3.730893 -25.29827 8.515647 5.272383 -17.89692 11.75107 85.82602 34.87257 -18.88475 -0 0 12.74818 -11.11366 10.64346 6.192002 6.765616 -22.0649 -0.3335542 -91.6516 22.41507 19.57301 0 0 -17.43118 9.832104 12.61245 1.676233
